<svg width="36" height="36" viewBox="0 0 24 24" xmlns="http://www.w3.org/2000/svg">
  <path d="M20.4523 14.5389C20.471 16.2176 20.1196 17.8218 19.4292 19.3544C18.4434 21.5368 16.0799 23.3213 13.9218 21.4218C12.1616 19.8736 11.8351 16.7306 9.19798 16.2705C5.7088 15.8477 5.62483 19.8923 3.34536 20.3492C0.804661 20.8653 -0.0380915 16.5938 -0.000774032 14.6539C0.0365434 12.714 0.552769 9.98759 2.76072 9.98759C5.30142 9.98759 5.47245 13.8332 8.69731 13.6249C11.8911 13.4073 11.947 9.40624 14.0337 7.69329C15.8343 6.2135 17.952 7.29847 19.0125 9.07982C19.9952 10.7275 20.4274 12.6612 20.4492 14.5389H20.4523Z" fill="orange"/>
</svg>

